# xmcd CD database file
#
# Track frame offsets:
#	150
#	23252
#	36292
#	58430
#	84775
#	109795
#	121660
#	145117
#	169180
#
# Disc length: 2616 seconds
#
# Revision: 1
# Processed by: cddbd v1.4PL0 Copyright (c) Steve Scherf et al.
# Submitted via: CDex 1.50
#
DISCID=690a3609
DTITLE=Teddy Wilson - Runnin' Wild
DYEAR=1993
DGENRE=Jazz
TTITLE0=One O´clock Jump
TTITLE1=Mood Indigo
TTITLE2=Take The 'A' Train
TTITLE3=Satin doll
TTITLE4=Poor Butterfly
TTITLE5=Smoke Gets in Your Eyes
TTITLE6=Runnin' Wild
TTITLE7=St James Infirmary Blues
TTITLE8=After You've Gone
EXTD=YEAR: 1993
EXTT0=
EXTT1=
EXTT2=
EXTT3=
EXTT4=
EXTT5=
EXTT6=
EXTT7=
EXTT8=
PLAYORDER=
